<mxfile host="app.diagrams.net" modified="2022-09-19T03:26:45.682Z" agent="5.0 (X11)" etag="QcIGZtXDm4fajN-IkS9a" version="20.3.2" type="github">
  <diagram name="Page-1" id="55a83fd1-7818-8e21-69c5-c3457e3827bb">
    <mxGraphModel dx="1422" dy="793" grid="1" gridSize="10" guides="1" tooltips="1" connect="1" arrows="1" fold="1" page="1" pageScale="1" pageWidth="1100" pageHeight="850" background="none" math="0" shadow="0">
      <root>
        <mxCell id="0" />
        <mxCell id="1" parent="0" />
        <mxCell id="69ecfefc5c41e42c-2" value="Internet" style="image;html=1;labelBackgroundColor=#ffffff;image=img/lib/clip_art/networking/Cloud_128x128.png;rounded=1;shadow=0;comic=0;strokeWidth=2;fontSize=22;labelPosition=center;verticalLabelPosition=top;align=center;verticalAlign=bottom;" parent="1" vertex="1">
          <mxGeometry x="330" y="335" width="70" height="60" as="geometry" />
        </mxCell>
        <mxCell id="69ecfefc5c41e42c-5" value="PC" style="image;html=1;labelBackgroundColor=#ffffff;image=img/lib/clip_art/computers/Monitor_Tower_128x128.png;rounded=1;shadow=0;comic=0;strokeWidth=2;fontSize=22" parent="1" vertex="1">
          <mxGeometry x="30" y="310" width="80" height="80" as="geometry" />
        </mxCell>
        <mxCell id="69ecfefc5c41e42c-12" value="" style="html=1;fillColor=#CCCCCC;strokeColor=#6881B3;gradientColor=none;gradientDirection=north;strokeWidth=2;shape=mxgraph.networks.comm_link_edge;html=1;labelBackgroundColor=none;endArrow=none;fontFamily=Verdana;fontSize=22;fontColor=#000000;fontStyle=1" parent="1" edge="1">
          <mxGeometry width="100" height="100" relative="1" as="geometry">
            <mxPoint x="110" y="363.8115384615386" as="sourcePoint" />
            <mxPoint x="170" y="360.0038461538462" as="targetPoint" />
          </mxGeometry>
        </mxCell>
        <mxCell id="cRlTSrXUvNww42stDikP-2" value="" style="endArrow=classic;html=1;rounded=0;" edge="1" parent="1">
          <mxGeometry width="50" height="50" relative="1" as="geometry">
            <mxPoint x="280" y="364.5" as="sourcePoint" />
            <mxPoint x="320" y="364.5" as="targetPoint" />
          </mxGeometry>
        </mxCell>
        <mxCell id="cRlTSrXUvNww42stDikP-4" value="" style="image;html=1;image=img/lib/clip_art/computers/Database_128x128.png" vertex="1" parent="1">
          <mxGeometry x="746" y="410" width="80" height="80" as="geometry" />
        </mxCell>
        <mxCell id="cRlTSrXUvNww42stDikP-6" value="" style="fontColor=#0066CC;verticalAlign=top;verticalLabelPosition=bottom;labelPosition=center;align=center;html=1;outlineConnect=0;fillColor=#CCCCCC;strokeColor=#6881B3;gradientColor=none;gradientDirection=north;strokeWidth=2;shape=mxgraph.networks.server;" vertex="1" parent="1">
          <mxGeometry x="620" y="415.5" width="90" height="100" as="geometry" />
        </mxCell>
        <mxCell id="cRlTSrXUvNww42stDikP-8" value="" style="image;html=1;image=img/lib/clip_art/computers/Database_128x128.png" vertex="1" parent="1">
          <mxGeometry x="806" y="420" width="80" height="80" as="geometry" />
        </mxCell>
        <mxCell id="cRlTSrXUvNww42stDikP-9" value="" style="image;html=1;image=img/lib/clip_art/computers/Database_128x128.png" vertex="1" parent="1">
          <mxGeometry x="776" y="440" width="80" height="80" as="geometry" />
        </mxCell>
        <mxCell id="cRlTSrXUvNww42stDikP-10" value="" style="fontColor=#0066CC;verticalAlign=top;verticalLabelPosition=bottom;labelPosition=center;align=center;html=1;outlineConnect=0;fillColor=#CCCCCC;strokeColor=#6881B3;gradientColor=none;gradientDirection=north;strokeWidth=2;shape=mxgraph.networks.router;" vertex="1" parent="1">
          <mxGeometry x="180" y="350" width="100" height="30" as="geometry" />
        </mxCell>
        <mxCell id="cRlTSrXUvNww42stDikP-12" value="" style="endArrow=classic;html=1;rounded=0;" edge="1" parent="1">
          <mxGeometry width="50" height="50" relative="1" as="geometry">
            <mxPoint x="430" y="469.5" as="sourcePoint" />
            <mxPoint x="460" y="469.5" as="targetPoint" />
          </mxGeometry>
        </mxCell>
        <mxCell id="cRlTSrXUvNww42stDikP-13" value="" style="endArrow=classic;html=1;rounded=0;" edge="1" parent="1">
          <mxGeometry width="50" height="50" relative="1" as="geometry">
            <mxPoint x="575" y="467.5" as="sourcePoint" />
            <mxPoint x="605" y="467.5" as="targetPoint" />
          </mxGeometry>
        </mxCell>
        <mxCell id="cRlTSrXUvNww42stDikP-15" value="" style="fontColor=#0066CC;verticalAlign=top;verticalLabelPosition=bottom;labelPosition=center;align=center;html=1;outlineConnect=0;fillColor=#CCCCCC;strokeColor=#6881B3;gradientColor=none;gradientDirection=north;strokeWidth=2;shape=mxgraph.networks.web_server;" vertex="1" parent="1">
          <mxGeometry x="470" y="415.5" width="105" height="105" as="geometry" />
        </mxCell>
        <mxCell id="cRlTSrXUvNww42stDikP-16" value="&lt;div&gt;Web server&lt;/div&gt;&lt;div&gt;(NGINX)&lt;br&gt;&lt;/div&gt;" style="text;html=1;align=center;verticalAlign=middle;resizable=0;points=[];autosize=1;strokeColor=none;fillColor=none;" vertex="1" parent="1">
          <mxGeometry x="509" y="520" width="80" height="40" as="geometry" />
        </mxCell>
        <mxCell id="cRlTSrXUvNww42stDikP-17" value="Application Server" style="text;html=1;align=center;verticalAlign=middle;resizable=0;points=[];autosize=1;strokeColor=none;fillColor=none;" vertex="1" parent="1">
          <mxGeometry x="627" y="515" width="120" height="30" as="geometry" />
        </mxCell>
        <mxCell id="cRlTSrXUvNww42stDikP-18" value="MySQL database" style="text;html=1;align=center;verticalAlign=middle;resizable=0;points=[];autosize=1;strokeColor=none;fillColor=none;" vertex="1" parent="1">
          <mxGeometry x="776" y="522.5" width="120" height="30" as="geometry" />
        </mxCell>
        <mxCell id="cRlTSrXUvNww42stDikP-19" value="" style="endArrow=classic;html=1;rounded=0;" edge="1" parent="1">
          <mxGeometry width="50" height="50" relative="1" as="geometry">
            <mxPoint x="717" y="467.5" as="sourcePoint" />
            <mxPoint x="747" y="467.5" as="targetPoint" />
          </mxGeometry>
        </mxCell>
        <mxCell id="cRlTSrXUvNww42stDikP-20" value="" style="fontColor=#0066CC;verticalAlign=top;verticalLabelPosition=bottom;labelPosition=center;align=center;html=1;outlineConnect=0;fillColor=#CCCCCC;strokeColor=#6881B3;gradientColor=none;gradientDirection=north;strokeWidth=2;shape=mxgraph.networks.proxy_server;" vertex="1" parent="1">
          <mxGeometry x="330" y="415" width="105" height="105" as="geometry" />
        </mxCell>
        <mxCell id="cRlTSrXUvNww42stDikP-21" value="" style="endArrow=classic;html=1;rounded=0;entryX=0.5;entryY=0;entryDx=0;entryDy=0;entryPerimeter=0;" edge="1" parent="1">
          <mxGeometry width="50" height="50" relative="1" as="geometry">
            <mxPoint x="375.5" y="388" as="sourcePoint" />
            <mxPoint x="382.5" y="408" as="targetPoint" />
          </mxGeometry>
        </mxCell>
      </root>
    </mxGraphModel>
  </diagram>
</mxfile>
